<?xml version="1.0" encoding="UTF-8" standalone="no"?>
<!-- Created with Inkscape (http://www.inkscape.org/) -->

<svg
   width="210mm"
   height="210mm"
   viewBox="0 0 210 210"
   version="1.1"
   id="svg1"
   xml:space="preserve"
   inkscape:version="1.4.2 (f4327f4, 2025-05-13)"
   sodipodi:docname="heyhelth.svg"
   xmlns:inkscape="http://www.inkscape.org/namespaces/inkscape"
   xmlns:sodipodi="http://sodipodi.sourceforge.net/DTD/sodipodi-0.dtd"
   xmlns="http://www.w3.org/2000/svg"
   xmlns:svg="http://www.w3.org/2000/svg"><sodipodi:namedview
     id="namedview1"
     pagecolor="#505050"
     bordercolor="#ffffff"
     borderopacity="1"
     inkscape:showpageshadow="0"
     inkscape:pageopacity="0"
     inkscape:pagecheckerboard="1"
     inkscape:deskcolor="#505050"
     inkscape:document-units="mm"
     inkscape:zoom="0.76167929"
     inkscape:cx="386.64567"
     inkscape:cy="251.41815"
     inkscape:window-width="1920"
     inkscape:window-height="1057"
     inkscape:window-x="-8"
     inkscape:window-y="-8"
     inkscape:window-maximized="1"
     inkscape:current-layer="layer1" /><defs
     id="defs1" /><g
     inkscape:label="Layer 1"
     inkscape:groupmode="layer"
     id="layer1"><g
       id="g2"
       transform="matrix(2.8613038,0,0,2.8613038,-275.71898,-278.66524)"><path
         style="fill:#ff7f2a;stroke-width:0.264583"
         d="m 114.12349,156.02947 c 0.032,2.46897 0.0429,4.55854 0.0461,6.50911 0.17514,1.75193 1.42006,1.90261 1.76544,1.98036 0.89729,-0.0284 1.69933,-0.12559 2.84006,-1.35095 l 7.19993,-7.38414 11.952,-0.0108 c -3.62195,-5.67668 -7.12613,-11.46329 -7.34651,-20.31477 0.0239,-3.29127 2.68341,-17.277 24.70038,-26.22809 -2.18642,-1.43482 -5.52412,-3.11132 -8.79606,-3.06288 l -31.19457,-0.12281 c -8.4268,0.87286 -16.914105,4.82791 -16.518385,14.43056 l 0.122813,20.93966 c 0.389125,11.16935 8.781522,13.20012 15.228842,14.61475 z"
         id="path1"
         sodipodi:nodetypes="ccccccccccccc" /><path
         style="fill:#b5dfdf;fill-opacity:1;stroke-width:0.264583"
         d="m 164.23131,109.23761 c -4.44994,1.02481 -9.31077,3.14535 -14.24634,5.46519 -6.89138,3.72177 -10.81446,7.68101 -13.63228,11.72867 -2.68087,4.36928 -3.37705,9.09941 -2.45626,14.12353 0.8736,3.11208 1.45431,6.01115 4.05284,10.37772 1.85697,-5.13484 3.10075,-9.96309 5.83363,-15.53588 3.33104,-5.43481 7.49734,-9.97785 12.46555,-13.44805 -3.45117,4.50353 -6.86997,9.01677 -8.71975,14.00071 -1.87077,4.17565 -3.3691,8.3513 -4.42127,12.52695 -0.31087,2.87713 -0.60046,5.69045 -0.42985,7.12317 4.74878,-0.65365 9.49756,-1.09586 14.24634,-5.40378 3.79731,-2.88053 6.98979,-6.98571 8.84255,-12.15851 1.83458,-4.54403 2.09071,-10.77175 1.47377,-17.93074 -0.77481,-3.62299 -1.16464,-7.24599 -3.00893,-10.86898 z"
         id="path2"
         sodipodi:nodetypes="cccccccccccccc" /></g></g></svg>
